<?xml version="1.0" encoding="UTF-8"?>
<svg xmlns="http://www.w3.org/2000/svg" xmlns:xlink="http://www.w3.org/1999/xlink" width="360pt" height="222pt" viewBox="0 0 360 222" version="1.1">
<g id="surface27">
<path style="fill-rule:nonzero;fill:rgb(23.780823%,68.873596%,99.998474%);fill-opacity:0.2;stroke-width:1;stroke-linecap:square;stroke-linejoin:miter;stroke:rgb(23.780823%,68.873596%,99.998474%);stroke-opacity:0.2;stroke-miterlimit:3.239307;" d="M 117.496094 218.042969 L 352.800781 218.042969 L 352.535156 217.921875 L 352.273438 217.910156 L 352.011719 217.894531 L 351.746094 217.878906 L 351.222656 217.839844 L 350.957031 217.820312 L 350.695312 217.796875 L 350.429688 217.773438 L 349.90625 217.71875 L 349.640625 217.6875 L 349.378906 217.65625 L 349.113281 217.621094 L 348.589844 217.542969 L 348.324219 217.5 L 347.800781 217.40625 L 347.535156 217.355469 L 347.273438 217.300781 L 347.007812 217.242188 L 346.484375 217.117188 L 346.21875 217.050781 L 345.957031 216.980469 L 345.695312 216.902344 L 345.429688 216.824219 L 345.167969 216.742188 L 344.902344 216.660156 L 344.640625 216.570312 L 344.378906 216.476562 L 344.113281 216.378906 L 343.589844 216.167969 L 343.324219 216.058594 L 343.0625 215.945312 L 342.796875 215.824219 L 342.535156 215.699219 L 342.273438 215.570312 L 342.007812 215.4375 L 341.746094 215.296875 L 341.480469 215.152344 L 341.21875 215.003906 L 340.957031 214.847656 L 340.691406 214.683594 L 340.429688 214.515625 L 340.167969 214.339844 L 339.902344 214.160156 L 339.640625 213.96875 L 339.375 213.773438 L 339.113281 213.570312 L 338.851562 213.355469 L 338.585938 213.132812 L 338.324219 212.902344 L 338.0625 212.660156 L 337.796875 212.40625 L 337.535156 212.144531 L 337.269531 211.867188 L 337.007812 211.582031 L 336.746094 211.28125 L 336.480469 210.964844 L 336.21875 210.636719 L 335.953125 210.289062 L 335.691406 209.929688 L 335.429688 209.550781 L 335.164062 209.152344 L 334.902344 208.738281 L 334.640625 208.304688 L 334.375 207.851562 L 334.113281 207.375 L 333.847656 206.875 L 333.585938 206.355469 L 333.324219 205.8125 L 333.058594 205.242188 L 332.796875 204.648438 L 332.535156 204.027344 L 332.269531 203.382812 L 332.007812 202.710938 L 331.742188 202.007812 L 331.480469 201.28125 L 331.21875 200.523438 L 330.953125 199.738281 L 330.691406 198.921875 L 330.429688 198.074219 L 330.164062 197.199219 L 329.902344 196.292969 L 329.636719 195.355469 L 329.375 194.390625 L 329.113281 193.394531 L 328.847656 192.367188 L 328.585938 191.308594 L 328.320312 190.21875 L 328.058594 189.101562 L 327.796875 187.957031 L 327.53125 186.777344 L 327.269531 185.574219 L 327.007812 184.335938 L 326.742188 183.074219 L 326.480469 181.78125 L 326.214844 180.464844 L 325.953125 179.117188 L 325.691406 177.746094 L 325.425781 176.347656 L 325.164062 174.921875 L 324.902344 173.472656 L 324.636719 171.996094 L 324.375 170.496094 L 324.109375 168.972656 L 323.847656 167.421875 L 323.320312 164.257812 L 323.058594 162.636719 L 322.796875 160.996094 L 322.53125 159.332031 L 322.269531 157.648438 L 322.003906 155.9375 L 321.742188 154.207031 L 321.480469 152.457031 L 321.214844 150.679688 L 320.953125 148.886719 L 320.6875 147.066406 L 320.425781 145.230469 L 320.164062 143.367188 L 319.898438 141.484375 L 319.636719 139.582031 L 319.375 137.660156 L 319.109375 135.714844 L 318.847656 133.75 L 318.582031 131.761719 L 318.320312 129.753906 L 318.058594 127.730469 L 317.792969 125.683594 L 317.53125 123.617188 L 317.269531 121.535156 L 317.003906 119.433594 L 316.742188 117.3125 L 316.476562 115.175781 L 316.214844 113.023438 L 315.953125 110.851562 L 315.6875 108.667969 L 315.425781 106.46875 L 315.164062 104.257812 L 314.898438 102.035156 L 314.636719 99.800781 L 314.371094 97.554688 L 314.109375 95.300781 L 313.847656 93.035156 L 313.582031 90.765625 L 313.320312 88.488281 L 313.054688 86.210938 L 312.53125 81.640625 L 312.265625 79.355469 L 311.742188 74.785156 L 311.476562 72.503906 L 311.214844 70.230469 L 310.949219 67.964844 L 310.6875 65.703125 L 310.425781 63.453125 L 310.160156 61.214844 L 309.898438 58.992188 L 309.636719 56.78125 L 309.371094 54.589844 L 309.109375 52.417969 L 308.84375 50.265625 L 308.582031 48.132812 L 308.320312 46.027344 L 308.054688 43.949219 L 307.792969 41.898438 L 307.527344 39.882812 L 307.265625 37.898438 L 307.003906 35.949219 L 306.738281 34.035156 L 306.476562 32.164062 L 306.214844 30.335938 L 305.949219 28.554688 L 305.6875 26.820312 L 305.421875 25.136719 L 305.160156 23.503906 L 304.898438 21.925781 L 304.632812 20.40625 L 304.371094 18.945312 L 304.109375 17.546875 L 303.84375 16.210938 L 303.582031 14.945312 L 303.316406 13.742188 L 303.054688 12.609375 L 302.792969 11.550781 L 302.527344 10.5625 L 302.265625 9.644531 L 302.003906 8.804688 L 301.738281 8.039062 L 301.476562 7.347656 L 301.210938 6.734375 L 300.949219 6.191406 L 300.6875 5.726562 L 300.421875 5.335938 L 300.160156 5.019531 L 299.894531 4.773438 L 299.632812 4.597656 L 299.371094 4.488281 L 299.105469 4.449219 L 298.84375 4.472656 L 298.582031 4.558594 L 298.316406 4.707031 L 298.054688 4.90625 L 297.789062 5.164062 L 297.527344 5.46875 L 297.265625 5.820312 L 297 6.21875 L 296.738281 6.65625 L 296.476562 7.132812 L 296.210938 7.640625 L 295.949219 8.179688 L 295.683594 8.75 L 295.421875 9.34375 L 295.160156 9.957031 L 294.894531 10.589844 L 294.632812 11.242188 L 294.371094 11.90625 L 294.105469 12.585938 L 293.84375 13.273438 L 293.578125 13.96875 L 293.316406 14.671875 L 293.054688 15.382812 L 292.789062 16.097656 L 292.527344 16.816406 L 292.261719 17.539062 L 292 18.265625 L 291.738281 18.996094 L 291.472656 19.726562 L 291.210938 20.460938 L 290.949219 21.199219 L 290.683594 21.941406 L 290.421875 22.6875 L 290.15625 23.4375 L 289.894531 24.195312 L 289.632812 24.957031 L 289.367188 25.722656 L 289.105469 26.5 L 288.84375 27.28125 L 288.578125 28.074219 L 288.316406 28.871094 L 288.050781 29.679688 L 287.789062 30.496094 L 287.527344 31.324219 L 287.261719 32.160156 L 287 33.007812 L 286.734375 33.863281 L 286.472656 34.730469 L 286.210938 35.605469 L 285.945312 36.488281 L 285.683594 37.382812 L 285.421875 38.285156 L 285.15625 39.195312 L 284.894531 40.113281 L 284.628906 41.039062 L 284.367188 41.96875 L 284.105469 42.910156 L 283.839844 43.855469 L 283.578125 44.804688 L 283.316406 45.757812 L 283.050781 46.71875 L 282.789062 47.6875 L 282.523438 48.65625 L 282.261719 49.628906 L 282 50.605469 L 281.734375 51.589844 L 281.472656 52.574219 L 281.210938 53.5625 L 280.945312 54.554688 L 280.683594 55.554688 L 280.417969 56.554688 L 279.894531 58.570312 L 279.628906 59.585938 L 279.367188 60.605469 L 279.101562 61.628906 L 278.839844 62.65625 L 278.578125 63.691406 L 278.3125 64.730469 L 278.050781 65.777344 L 277.789062 66.828125 L 277.523438 67.882812 L 277.261719 68.945312 L 276.996094 70.011719 L 276.734375 71.082031 L 276.472656 72.15625 L 276.207031 73.234375 L 275.683594 75.40625 L 275.417969 76.496094 L 275.15625 77.589844 L 274.890625 78.683594 L 274.367188 80.878906 L 274.101562 81.976562 L 273.578125 84.171875 L 273.3125 85.265625 L 273.050781 86.359375 L 272.785156 87.449219 L 272.523438 88.535156 L 272.261719 89.617188 L 271.996094 90.695312 L 271.734375 91.769531 L 271.46875 92.835938 L 271.207031 93.898438 L 270.945312 94.953125 L 270.679688 96 L 270.417969 97.039062 L 270.15625 98.074219 L 269.890625 99.097656 L 269.628906 100.113281 L 269.363281 101.125 L 269.101562 102.121094 L 268.839844 103.113281 L 268.574219 104.097656 L 268.3125 105.070312 L 268.050781 106.03125 L 267.785156 106.988281 L 267.523438 107.933594 L 267.257812 108.871094 L 266.996094 109.796875 L 266.734375 110.714844 L 266.46875 111.625 L 266.207031 112.523438 L 265.941406 113.414062 L 265.679688 114.296875 L 265.417969 115.167969 L 265.152344 116.03125 L 264.890625 116.886719 L 264.628906 117.734375 L 264.363281 118.570312 L 264.101562 119.398438 L 263.835938 120.21875 L 263.574219 121.03125 L 263.3125 121.835938 L 263.046875 122.628906 L 262.785156 123.417969 L 262.523438 124.195312 L 262.257812 124.964844 L 261.996094 125.730469 L 261.730469 126.484375 L 261.46875 127.230469 L 261.207031 127.972656 L 260.941406 128.703125 L 260.679688 129.429688 L 260.417969 130.148438 L 260.152344 130.859375 L 259.890625 131.566406 L 259.625 132.265625 L 259.363281 132.960938 L 259.101562 133.648438 L 258.835938 134.332031 L 258.574219 135.011719 L 258.308594 135.683594 L 258.046875 136.355469 L 257.785156 137.019531 L 257.519531 137.683594 L 256.996094 139.003906 L 256.730469 139.65625 L 256.46875 140.3125 L 256.203125 140.964844 L 255.679688 142.269531 L 255.414062 142.925781 L 254.890625 144.230469 L 254.625 144.886719 L 254.363281 145.546875 L 254.097656 146.203125 L 253.835938 146.867188 L 253.574219 147.527344 L 253.308594 148.195312 L 252.785156 149.53125 L 252.519531 150.203125 L 252.257812 150.875 L 251.992188 151.550781 L 251.730469 152.222656 L 251.46875 152.898438 L 251.203125 153.574219 L 250.941406 154.25 L 250.675781 154.921875 L 250.414062 155.59375 L 250.152344 156.261719 L 249.886719 156.925781 L 249.625 157.585938 L 249.363281 158.238281 L 249.097656 158.886719 L 248.835938 159.523438 L 248.570312 160.15625 L 248.308594 160.777344 L 248.046875 161.390625 L 247.78125 161.992188 L 247.519531 162.582031 L 247.257812 163.160156 L 246.992188 163.722656 L 246.730469 164.273438 L 246.464844 164.808594 L 246.203125 165.328125 L 245.941406 165.835938 L 245.675781 166.324219 L 245.414062 166.800781 L 245.152344 167.257812 L 244.886719 167.699219 L 244.625 168.128906 L 244.359375 168.539062 L 244.097656 168.933594 L 243.835938 169.316406 L 243.570312 169.683594 L 243.308594 170.035156 L 243.042969 170.375 L 242.78125 170.699219 L 242.519531 171.011719 L 242.253906 171.3125 L 241.992188 171.601562 L 241.730469 171.882812 L 241.464844 172.152344 L 241.203125 172.414062 L 240.9375 172.667969 L 240.675781 172.914062 L 240.414062 173.15625 L 240.148438 173.386719 L 239.886719 173.617188 L 239.625 173.84375 L 239.359375 174.0625 L 239.097656 174.28125 L 238.832031 174.496094 L 238.308594 174.917969 L 238.042969 175.128906 L 237.78125 175.339844 L 237.515625 175.546875 L 236.992188 175.96875 L 236.726562 176.175781 L 236.203125 176.597656 L 235.9375 176.8125 L 235.675781 177.023438 L 235.410156 177.238281 L 234.886719 177.667969 L 234.621094 177.886719 L 234.359375 178.101562 L 234.097656 178.320312 L 233.832031 178.539062 L 233.570312 178.757812 L 233.304688 178.972656 L 232.78125 179.410156 L 232.515625 179.625 L 231.992188 180.054688 L 231.726562 180.269531 L 231.464844 180.480469 L 231.199219 180.6875 L 230.675781 181.101562 L 230.410156 181.300781 L 230.148438 181.5 L 229.882812 181.699219 L 229.359375 182.082031 L 229.09375 182.265625 L 228.832031 182.449219 L 228.570312 182.628906 L 228.304688 182.804688 L 228.042969 182.976562 L 227.777344 183.148438 L 227.253906 183.476562 L 226.988281 183.636719 L 226.726562 183.796875 L 226.464844 183.953125 L 226.199219 184.105469 L 225.9375 184.257812 L 225.671875 184.40625 L 225.148438 184.703125 L 224.882812 184.851562 L 224.359375 185.148438 L 224.09375 185.296875 L 223.832031 185.445312 L 223.566406 185.597656 L 223.042969 185.910156 L 222.777344 186.066406 L 222.515625 186.230469 L 222.25 186.394531 L 221.988281 186.5625 L 221.726562 186.734375 L 221.460938 186.910156 L 221.199219 187.089844 L 220.9375 187.273438 L 220.671875 187.460938 L 220.410156 187.652344 L 220.144531 187.84375 L 219.621094 188.242188 L 219.355469 188.445312 L 218.832031 188.859375 L 218.566406 189.066406 L 218.304688 189.277344 L 218.039062 189.488281 L 217.777344 189.695312 L 217.515625 189.90625 L 217.25 190.113281 L 216.988281 190.320312 L 216.722656 190.523438 L 216.460938 190.726562 L 216.199219 190.925781 L 215.933594 191.121094 L 215.671875 191.3125 L 215.410156 191.5 L 215.144531 191.683594 L 214.882812 191.859375 L 214.617188 192.03125 L 214.355469 192.203125 L 214.09375 192.363281 L 213.828125 192.523438 L 213.566406 192.679688 L 213.304688 192.828125 L 213.039062 192.976562 L 212.777344 193.121094 L 212.511719 193.261719 L 212.25 193.402344 L 211.988281 193.539062 L 211.722656 193.675781 L 211.460938 193.816406 L 211.199219 193.953125 L 210.933594 194.09375 L 210.671875 194.238281 L 210.40625 194.386719 L 210.144531 194.539062 L 209.882812 194.695312 L 209.617188 194.859375 L 209.355469 195.03125 L 209.089844 195.210938 L 208.828125 195.398438 L 208.566406 195.597656 L 208.300781 195.804688 L 208.039062 196.023438 L 207.777344 196.253906 L 207.511719 196.492188 L 207.25 196.746094 L 206.984375 197.007812 L 206.722656 197.28125 L 206.460938 197.566406 L 206.195312 197.863281 L 205.933594 198.171875 L 205.671875 198.488281 L 205.40625 198.816406 L 205.144531 199.152344 L 204.878906 199.492188 L 204.617188 199.84375 L 204.355469 200.199219 L 204.089844 200.5625 L 203.828125 200.925781 L 203.566406 201.292969 L 203.300781 201.664062 L 203.039062 202.035156 L 202.773438 202.402344 L 202.511719 202.769531 L 202.25 203.132812 L 201.984375 203.492188 L 201.722656 203.847656 L 201.457031 204.195312 L 201.195312 204.535156 L 200.933594 204.867188 L 200.667969 205.1875 L 200.40625 205.5 L 200.144531 205.800781 L 199.878906 206.089844 L 199.617188 206.367188 L 199.351562 206.632812 L 199.089844 206.882812 L 198.828125 207.121094 L 198.5625 207.347656 L 198.300781 207.558594 L 198.039062 207.757812 L 197.773438 207.945312 L 197.511719 208.117188 L 197.246094 208.28125 L 196.984375 208.429688 L 196.722656 208.570312 L 196.457031 208.699219 L 196.195312 208.816406 L 195.929688 208.925781 L 195.667969 209.027344 L 195.40625 209.121094 L 195.140625 209.207031 L 194.617188 209.363281 L 194.351562 209.433594 L 194.089844 209.5 L 193.824219 209.5625 L 193.300781 209.6875 L 193.035156 209.746094 L 192.511719 209.863281 L 192.246094 209.925781 L 191.984375 209.984375 L 191.71875 210.046875 L 191.195312 210.179688 L 190.929688 210.25 L 190.667969 210.320312 L 190.40625 210.394531 L 190.140625 210.46875 L 189.878906 210.546875 L 189.613281 210.628906 L 189.351562 210.710938 L 189.089844 210.796875 L 188.824219 210.882812 L 188.5625 210.96875 L 188.296875 211.058594 L 188.035156 211.148438 L 187.773438 211.242188 L 187.507812 211.332031 L 187.246094 211.421875 L 186.984375 211.515625 L 186.71875 211.605469 L 186.457031 211.695312 L 186.191406 211.785156 L 185.929688 211.875 L 185.667969 211.960938 L 185.402344 212.046875 L 185.140625 212.132812 L 184.878906 212.214844 L 184.613281 212.296875 L 184.351562 212.378906 L 184.085938 212.457031 L 183.5625 212.605469 L 183.296875 212.679688 L 183.035156 212.75 L 182.773438 212.816406 L 182.507812 212.882812 L 182.246094 212.949219 L 181.980469 213.015625 L 181.71875 213.078125 L 181.457031 213.136719 L 181.191406 213.199219 L 180.929688 213.257812 L 180.664062 213.3125 L 180.402344 213.371094 L 180.140625 213.425781 L 179.875 213.480469 L 179.613281 213.535156 L 179.351562 213.585938 L 179.085938 213.636719 L 178.824219 213.691406 L 178.558594 213.738281 L 178.035156 213.839844 L 177.769531 213.886719 L 177.246094 213.980469 L 176.980469 214.023438 L 176.71875 214.070312 L 176.453125 214.113281 L 176.191406 214.15625 L 175.929688 214.195312 L 175.664062 214.234375 L 175.402344 214.277344 L 175.136719 214.3125 L 174.875 214.351562 L 174.613281 214.386719 L 174.347656 214.421875 L 174.085938 214.457031 L 173.824219 214.488281 L 173.558594 214.519531 L 173.296875 214.550781 L 173.03125 214.578125 L 172.769531 214.609375 L 172.507812 214.636719 L 172.242188 214.660156 L 171.980469 214.6875 L 171.71875 214.710938 L 171.453125 214.734375 L 171.191406 214.757812 L 170.925781 214.777344 L 170.664062 214.800781 L 170.402344 214.820312 L 170.136719 214.839844 L 169.613281 214.878906 L 169.347656 214.894531 L 169.085938 214.910156 L 168.820312 214.929688 L 168.296875 214.960938 L 168.03125 214.972656 L 167.769531 214.988281 L 167.503906 215.003906 L 166.980469 215.027344 L 166.714844 215.042969 L 166.191406 215.066406 L 165.925781 215.078125 L 165.664062 215.089844 L 165.398438 215.101562 L 164.875 215.125 L 164.609375 215.136719 L 164.085938 215.160156 L 163.820312 215.171875 L 163.558594 215.183594 L 163.292969 215.199219 L 162.769531 215.222656 L 162.503906 215.238281 L 161.980469 215.269531 L 161.714844 215.285156 L 161.453125 215.300781 L 161.1875 215.320312 L 160.925781 215.335938 L 160.664062 215.355469 L 160.398438 215.378906 L 160.136719 215.398438 L 159.871094 215.421875 L 159.609375 215.441406 L 159.347656 215.464844 L 159.082031 215.492188 L 158.820312 215.515625 L 158.558594 215.542969 L 158.292969 215.566406 L 158.03125 215.59375 L 157.765625 215.621094 L 157.503906 215.652344 L 157.242188 215.679688 L 156.976562 215.707031 L 156.714844 215.738281 L 156.453125 215.765625 L 156.1875 215.796875 L 155.925781 215.824219 L 155.660156 215.855469 L 155.398438 215.886719 L 155.136719 215.914062 L 154.871094 215.945312 L 154.609375 215.972656 L 154.347656 216.003906 L 154.082031 216.03125 L 153.820312 216.0625 L 153.554688 216.089844 L 153.03125 216.144531 L 152.765625 216.175781 L 152.503906 216.203125 L 152.238281 216.230469 L 151.714844 216.285156 L 151.449219 216.3125 L 151.1875 216.339844 L 150.925781 216.371094 L 150.660156 216.398438 L 150.398438 216.425781 L 150.132812 216.453125 L 149.871094 216.484375 L 149.609375 216.511719 L 149.34375 216.542969 L 149.082031 216.570312 L 148.820312 216.601562 L 148.554688 216.632812 L 148.292969 216.664062 L 148.027344 216.695312 L 147.765625 216.730469 L 147.503906 216.761719 L 147.238281 216.792969 L 146.976562 216.828125 L 146.710938 216.863281 L 146.1875 216.933594 L 145.921875 216.964844 L 145.660156 217.003906 L 145.398438 217.039062 L 145.132812 217.074219 L 144.871094 217.109375 L 144.605469 217.144531 L 144.082031 217.214844 L 143.816406 217.25 L 143.292969 217.320312 L 143.027344 217.351562 L 142.765625 217.386719 L 142.5 217.417969 L 141.976562 217.480469 L 141.710938 217.511719 L 141.1875 217.566406 L 140.921875 217.59375 L 140.660156 217.617188 L 140.394531 217.640625 L 139.871094 217.6875 L 139.605469 217.707031 L 139.34375 217.726562 L 139.078125 217.742188 L 138.816406 217.761719 L 138.554688 217.773438 L 138.289062 217.789062 L 138.027344 217.800781 L 137.765625 217.808594 L 137.5 217.820312 L 137.238281 217.824219 L 136.972656 217.832031 L 136.449219 217.839844 L 136.183594 217.84375 L 135.660156 217.84375 L 135.394531 217.839844 L 135.132812 217.835938 L 134.867188 217.832031 L 134.34375 217.824219 L 134.078125 217.816406 L 133.554688 217.800781 L 133.289062 217.789062 L 133.027344 217.78125 L 132.761719 217.769531 L 132.238281 217.746094 L 131.972656 217.734375 L 131.710938 217.722656 L 131.445312 217.710938 L 130.921875 217.6875 L 130.65625 217.675781 L 130.132812 217.652344 L 129.867188 217.640625 L 129.605469 217.632812 L 129.339844 217.621094 L 128.816406 217.605469 L 128.550781 217.597656 L 128.289062 217.589844 L 128.027344 217.585938 L 127.761719 217.582031 L 127.5 217.578125 L 127.234375 217.574219 L 126.445312 217.574219 L 126.183594 217.578125 L 125.917969 217.582031 L 125.394531 217.589844 L 125.128906 217.59375 L 124.605469 217.609375 L 124.339844 217.621094 L 124.078125 217.628906 L 123.8125 217.640625 L 123.289062 217.664062 L 123.023438 217.675781 L 122.5 217.699219 L 122.234375 217.714844 L 121.972656 217.726562 L 121.707031 217.742188 L 121.445312 217.753906 L 121.183594 217.769531 L 120.917969 217.78125 L 120.65625 217.796875 L 120.394531 217.808594 L 120.128906 217.824219 L 119.867188 217.835938 L 119.601562 217.847656 L 119.339844 217.863281 L 119.078125 217.875 L 118.8125 217.886719 L 118.550781 217.894531 L 118.285156 217.90625 L 118.023438 217.917969 L 117.761719 217.925781 Z M 117.496094 218.042969 "/>
<path style="fill-rule:nonzero;fill:rgb(99.998474%,51.959229%,30.967712%);fill-opacity:0.2;stroke-width:1;stroke-linecap:square;stroke-linejoin:miter;stroke:rgb(99.998474%,51.959229%,30.967712%);stroke-opacity:0.2;stroke-miterlimit:3.239307;" d="M 7.199219 218.042969 L 332.734375 218.042969 L 332.34375 217.792969 L 331.171875 217.746094 L 330.785156 217.730469 L 330.003906 217.699219 L 329.613281 217.679688 L 329.222656 217.664062 L 328.835938 217.644531 L 327.273438 217.566406 L 326.886719 217.542969 L 326.496094 217.523438 L 326.105469 217.5 L 325.714844 217.480469 L 324.933594 217.433594 L 324.546875 217.410156 L 323.765625 217.363281 L 323.375 217.335938 L 322.984375 217.3125 L 322.597656 217.289062 L 322.207031 217.261719 L 321.816406 217.238281 L 321.035156 217.183594 L 320.648438 217.15625 L 320.257812 217.128906 L 319.867188 217.105469 L 319.085938 217.050781 L 318.699219 217.023438 L 318.308594 216.992188 L 317.136719 216.910156 L 316.75 216.878906 L 316.359375 216.851562 L 315.96875 216.820312 L 315.578125 216.792969 L 315.1875 216.761719 L 314.800781 216.734375 L 313.238281 216.609375 L 312.851562 216.578125 L 312.460938 216.546875 L 312.070312 216.511719 L 311.679688 216.480469 L 311.289062 216.445312 L 310.902344 216.410156 L 309.730469 216.304688 L 309.339844 216.265625 L 308.953125 216.226562 L 308.171875 216.148438 L 307 216.019531 L 306.613281 215.976562 L 305.441406 215.835938 L 305.050781 215.785156 L 304.664062 215.734375 L 304.273438 215.683594 L 303.101562 215.519531 L 302.714844 215.460938 L 302.324219 215.402344 L 301.542969 215.277344 L 301.152344 215.210938 L 300.765625 215.144531 L 300.375 215.078125 L 299.203125 214.867188 L 298.816406 214.792969 L 298.425781 214.71875 L 297.644531 214.5625 L 297.253906 214.480469 L 296.867188 214.398438 L 296.476562 214.316406 L 295.304688 214.058594 L 294.917969 213.96875 L 293.746094 213.699219 L 293.355469 213.605469 L 292.96875 213.511719 L 292.578125 213.414062 L 292.1875 213.320312 L 291.40625 213.125 L 291.019531 213.027344 L 290.628906 212.925781 L 290.238281 212.828125 L 289.457031 212.625 L 289.070312 212.527344 L 288.679688 212.425781 L 288.289062 212.320312 L 287.117188 212.015625 L 286.730469 211.910156 L 285.949219 211.707031 L 285.558594 211.601562 L 285.167969 211.5 L 284.78125 211.394531 L 284.390625 211.292969 L 284 211.1875 L 283.609375 211.085938 L 283.21875 210.980469 L 282.832031 210.878906 L 282.441406 210.773438 L 282.050781 210.671875 L 281.660156 210.566406 L 281.269531 210.464844 L 280.882812 210.359375 L 280.492188 210.257812 L 279.710938 210.046875 L 279.320312 209.945312 L 278.933594 209.839844 L 277.371094 209.417969 L 276.984375 209.3125 L 276.59375 209.207031 L 276.203125 209.097656 L 275.8125 208.992188 L 275.421875 208.882812 L 275.035156 208.773438 L 273.863281 208.445312 L 273.472656 208.332031 L 273.085938 208.222656 L 272.304688 207.996094 L 271.914062 207.878906 L 271.523438 207.765625 L 271.136719 207.648438 L 269.964844 207.296875 L 269.574219 207.175781 L 269.1875 207.054688 L 268.40625 206.8125 L 267.234375 206.4375 L 266.847656 206.3125 L 266.457031 206.1875 L 265.285156 205.800781 L 264.898438 205.671875 L 264.507812 205.539062 L 264.117188 205.410156 L 263.335938 205.144531 L 262.949219 205.011719 L 262.558594 204.875 L 262.167969 204.742188 L 261.386719 204.46875 L 261 204.332031 L 260.21875 204.058594 L 259.828125 203.917969 L 259.4375 203.78125 L 259.050781 203.640625 L 257.488281 203.078125 L 257.101562 202.933594 L 256.710938 202.792969 L 255.539062 202.359375 L 255.152344 202.214844 L 254.371094 201.925781 L 253.589844 201.628906 L 253.203125 201.484375 L 252.8125 201.335938 L 252.421875 201.183594 L 252.03125 201.035156 L 251.640625 200.882812 L 251.253906 200.734375 L 250.472656 200.429688 L 250.082031 200.273438 L 249.691406 200.121094 L 249.304688 199.964844 L 248.132812 199.496094 L 247.351562 199.175781 L 246.964844 199.015625 L 246.574219 198.855469 L 246.183594 198.691406 L 245.792969 198.53125 L 245.402344 198.367188 L 245.015625 198.199219 L 244.625 198.035156 L 243.453125 197.53125 L 243.066406 197.363281 L 242.675781 197.191406 L 242.285156 197.023438 L 241.503906 196.679688 L 241.117188 196.503906 L 240.726562 196.332031 L 239.554688 195.804688 L 239.167969 195.628906 L 238.777344 195.453125 L 238.386719 195.273438 L 237.996094 195.097656 L 237.605469 194.917969 L 237.21875 194.738281 L 235.65625 194.019531 L 235.269531 193.839844 L 234.488281 193.480469 L 234.097656 193.296875 L 233.707031 193.117188 L 233.320312 192.9375 L 232.929688 192.753906 L 232.148438 192.394531 L 231.757812 192.210938 L 231.371094 192.03125 L 230.980469 191.851562 L 230.589844 191.667969 L 229.417969 191.128906 L 229.03125 190.949219 L 227.46875 190.230469 L 227.082031 190.054688 L 226.691406 189.875 L 226.300781 189.699219 L 225.910156 189.519531 L 225.519531 189.34375 L 225.132812 189.167969 L 223.570312 188.464844 L 223.183594 188.292969 L 222.792969 188.117188 L 221.621094 187.601562 L 221.234375 187.433594 L 220.84375 187.261719 L 220.0625 186.925781 L 219.671875 186.761719 L 219.285156 186.59375 L 218.894531 186.429688 L 218.503906 186.269531 L 218.113281 186.105469 L 217.722656 185.945312 L 217.335938 185.789062 L 216.945312 185.628906 L 216.554688 185.472656 L 216.164062 185.320312 L 215.773438 185.164062 L 215.386719 185.011719 L 214.214844 184.566406 L 213.824219 184.421875 L 213.4375 184.277344 L 212.65625 183.996094 L 211.875 183.722656 L 211.488281 183.585938 L 210.316406 183.1875 L 209.535156 182.929688 L 209.148438 182.804688 L 208.757812 182.675781 L 208.367188 182.550781 L 207.976562 182.429688 L 207.585938 182.304688 L 207.199219 182.183594 L 206.808594 182.058594 L 205.636719 181.695312 L 205.25 181.574219 L 203.6875 181.089844 L 203.300781 180.964844 L 201.738281 180.464844 L 201.351562 180.335938 L 200.960938 180.203125 L 200.570312 180.074219 L 200.179688 179.941406 L 199.789062 179.804688 L 199.402344 179.667969 L 199.011719 179.53125 L 198.621094 179.386719 L 198.230469 179.246094 L 197.839844 179.101562 L 197.453125 178.953125 L 197.0625 178.804688 L 196.28125 178.5 L 195.890625 178.34375 L 195.503906 178.183594 L 195.113281 178.023438 L 194.332031 177.695312 L 193.941406 177.527344 L 193.554688 177.359375 L 192.773438 177.015625 L 191.992188 176.664062 L 191.605469 176.484375 L 191.214844 176.304688 L 190.042969 175.753906 L 189.652344 175.566406 L 189.265625 175.378906 L 188.875 175.1875 L 188.484375 175 L 188.09375 174.804688 L 187.703125 174.613281 L 187.316406 174.417969 L 186.535156 174.027344 L 185.753906 173.628906 L 185.367188 173.429688 L 184.976562 173.226562 L 184.585938 173.027344 L 184.195312 172.824219 L 183.804688 172.617188 L 183.417969 172.410156 L 182.636719 171.996094 L 181.855469 171.574219 L 181.46875 171.359375 L 180.6875 170.929688 L 180.296875 170.710938 L 179.90625 170.488281 L 179.519531 170.269531 L 178.347656 169.589844 L 177.957031 169.355469 L 177.570312 169.125 L 176.789062 168.648438 L 176.007812 168.164062 L 175.621094 167.917969 L 175.230469 167.667969 L 174.449219 167.160156 L 174.058594 166.902344 L 173.671875 166.640625 L 173.28125 166.378906 L 172.890625 166.113281 L 172.5 165.84375 L 171.71875 165.296875 L 171.332031 165.019531 L 170.941406 164.742188 L 170.550781 164.457031 L 170.160156 164.175781 L 169.769531 163.886719 L 169.382812 163.601562 L 168.992188 163.308594 L 168.601562 163.019531 L 168.210938 162.726562 L 167.820312 162.429688 L 167.433594 162.136719 L 166.261719 161.246094 L 165.871094 160.945312 L 165.484375 160.648438 L 164.3125 159.757812 L 163.921875 159.464844 L 163.535156 159.171875 L 162.753906 158.585938 L 162.363281 158.300781 L 161.972656 158.011719 L 161.585938 157.730469 L 161.195312 157.449219 L 160.804688 157.171875 L 160.023438 156.625 L 159.636719 156.359375 L 159.246094 156.09375 L 158.464844 155.578125 L 158.074219 155.328125 L 157.6875 155.082031 L 157.296875 154.839844 L 156.90625 154.601562 L 156.515625 154.367188 L 156.125 154.136719 L 155.738281 153.914062 L 155.347656 153.695312 L 154.957031 153.480469 L 154.566406 153.269531 L 154.175781 153.066406 L 153.789062 152.863281 L 153.398438 152.667969 L 153.007812 152.476562 L 152.617188 152.289062 L 152.226562 152.105469 L 151.835938 151.925781 L 151.449219 151.75 L 151.058594 151.578125 L 150.667969 151.410156 L 149.886719 151.082031 L 149.5 150.925781 L 148.71875 150.613281 L 148.328125 150.464844 L 147.9375 150.3125 L 147.550781 150.164062 L 145.988281 149.585938 L 145.601562 149.445312 L 145.210938 149.300781 L 144.820312 149.160156 L 144.429688 149.015625 L 144.039062 148.875 L 143.652344 148.730469 L 143.261719 148.589844 L 142.480469 148.300781 L 142.089844 148.152344 L 141.703125 148.007812 L 140.921875 147.710938 L 140.53125 147.558594 L 140.140625 147.410156 L 139.753906 147.257812 L 139.363281 147.101562 L 138.972656 146.949219 L 138.191406 146.636719 L 137.804688 146.476562 L 137.414062 146.320312 L 136.242188 145.839844 L 135.855469 145.679688 L 134.292969 145.039062 L 133.90625 144.878906 L 132.34375 144.253906 L 131.953125 144.101562 L 131.566406 143.949219 L 130.785156 143.652344 L 130.003906 143.363281 L 129.617188 143.222656 L 129.226562 143.085938 L 128.445312 142.820312 L 128.054688 142.691406 L 127.667969 142.5625 L 126.886719 142.320312 L 126.496094 142.203125 L 126.105469 142.089844 L 125.71875 141.980469 L 125.328125 141.871094 L 124.9375 141.765625 L 124.546875 141.664062 L 124.15625 141.566406 L 123.769531 141.46875 L 122.597656 141.199219 L 122.207031 141.113281 L 121.820312 141.03125 L 120.648438 140.796875 L 120.257812 140.722656 L 119.871094 140.652344 L 119.480469 140.578125 L 119.089844 140.511719 L 118.699219 140.441406 L 118.308594 140.375 L 117.921875 140.308594 L 117.53125 140.242188 L 116.75 140.117188 L 116.359375 140.050781 L 115.972656 139.988281 L 115.582031 139.925781 L 115.191406 139.867188 L 114.410156 139.742188 L 114.023438 139.679688 L 112.460938 139.429688 L 112.070312 139.371094 L 111.683594 139.308594 L 111.292969 139.242188 L 110.121094 139.054688 L 109.734375 138.992188 L 108.171875 138.742188 L 107.785156 138.679688 L 106.222656 138.429688 L 105.835938 138.371094 L 105.445312 138.308594 L 104.664062 138.191406 L 104.273438 138.136719 L 103.886719 138.078125 L 102.714844 137.914062 L 102.324219 137.863281 L 101.9375 137.8125 L 101.546875 137.761719 L 100.765625 137.667969 L 100.375 137.625 L 99.988281 137.578125 L 98.425781 137.421875 L 98.039062 137.386719 L 97.257812 137.324219 L 96.476562 137.269531 L 96.089844 137.242188 L 95.699219 137.222656 L 95.308594 137.199219 L 94.917969 137.179688 L 94.527344 137.164062 L 94.136719 137.152344 L 93.75 137.140625 L 93.359375 137.128906 L 92.96875 137.125 L 92.578125 137.117188 L 91.800781 137.117188 L 91.410156 137.121094 L 90.628906 137.136719 L 90.238281 137.152344 L 89.851562 137.167969 L 89.070312 137.207031 L 88.679688 137.234375 L 88.289062 137.265625 L 87.902344 137.296875 L 87.511719 137.335938 L 87.121094 137.378906 L 86.730469 137.425781 L 86.339844 137.476562 L 85.953125 137.53125 L 85.5625 137.59375 L 85.171875 137.660156 L 84.78125 137.730469 L 84.390625 137.804688 L 84.003906 137.886719 L 83.613281 137.976562 L 83.222656 138.070312 L 82.832031 138.167969 L 82.441406 138.273438 L 82.054688 138.386719 L 81.664062 138.503906 L 81.273438 138.628906 L 80.882812 138.761719 L 80.492188 138.898438 L 80.105469 139.046875 L 79.714844 139.199219 L 79.324219 139.359375 L 78.933594 139.527344 L 78.542969 139.699219 L 78.15625 139.882812 L 77.765625 140.070312 L 77.375 140.269531 L 76.984375 140.472656 L 76.59375 140.683594 L 76.207031 140.902344 L 75.816406 141.128906 L 75.425781 141.359375 L 75.035156 141.601562 L 74.644531 141.847656 L 74.253906 142.101562 L 73.867188 142.359375 L 73.476562 142.628906 L 73.085938 142.902344 L 72.695312 143.179688 L 72.304688 143.46875 L 71.917969 143.757812 L 71.136719 144.359375 L 70.355469 144.984375 L 69.96875 145.304688 L 69.578125 145.628906 L 69.1875 145.957031 L 68.796875 146.292969 L 68.40625 146.632812 L 68.019531 146.976562 L 67.628906 147.320312 L 67.238281 147.671875 L 66.457031 148.390625 L 66.070312 148.753906 L 65.679688 149.121094 L 65.289062 149.492188 L 64.898438 149.867188 L 64.507812 150.246094 L 64.121094 150.628906 L 63.730469 151.015625 L 62.949219 151.796875 L 62.558594 152.195312 L 62.171875 152.597656 L 61.390625 153.417969 L 61 153.832031 L 60.609375 154.253906 L 60.222656 154.679688 L 59.832031 155.109375 L 59.441406 155.546875 L 59.050781 155.988281 L 58.660156 156.4375 L 58.273438 156.890625 L 57.882812 157.351562 L 57.492188 157.820312 L 57.101562 158.292969 L 56.710938 158.773438 L 56.324219 159.261719 L 55.933594 159.761719 L 55.542969 160.265625 L 55.152344 160.777344 L 54.761719 161.300781 L 54.371094 161.832031 L 53.984375 162.371094 L 53.59375 162.921875 L 53.203125 163.480469 L 52.8125 164.046875 L 52.421875 164.625 L 52.035156 165.214844 L 51.644531 165.8125 L 51.253906 166.417969 L 50.863281 167.039062 L 50.472656 167.664062 L 50.085938 168.304688 L 49.695312 168.953125 L 49.304688 169.609375 L 48.914062 170.28125 L 48.523438 170.957031 L 48.136719 171.644531 L 47.746094 172.34375 L 47.355469 173.046875 L 46.964844 173.765625 L 46.574219 174.488281 L 46.1875 175.21875 L 45.796875 175.960938 L 45.40625 176.707031 L 45.015625 177.460938 L 44.625 178.21875 L 44.238281 178.988281 L 43.847656 179.757812 L 43.457031 180.535156 L 43.066406 181.316406 L 42.675781 182.101562 L 42.289062 182.890625 L 41.898438 183.679688 L 40.726562 186.058594 L 40.339844 186.851562 L 39.949219 187.644531 L 39.167969 189.222656 L 38.777344 190.007812 L 38.390625 190.789062 L 38 191.566406 L 37.609375 192.335938 L 37.21875 193.101562 L 36.828125 193.863281 L 36.441406 194.613281 L 36.050781 195.359375 L 35.660156 196.09375 L 35.269531 196.820312 L 34.878906 197.539062 L 34.488281 198.246094 L 34.101562 198.941406 L 33.710938 199.628906 L 33.320312 200.300781 L 32.929688 200.960938 L 32.539062 201.609375 L 32.152344 202.246094 L 31.761719 202.871094 L 31.371094 203.480469 L 30.980469 204.074219 L 30.589844 204.65625 L 30.203125 205.222656 L 29.8125 205.773438 L 29.421875 206.3125 L 29.03125 206.835938 L 28.640625 207.34375 L 28.253906 207.835938 L 27.863281 208.3125 L 27.472656 208.777344 L 27.082031 209.222656 L 26.691406 209.65625 L 26.304688 210.074219 L 25.914062 210.476562 L 25.523438 210.867188 L 25.132812 211.242188 L 24.742188 211.601562 L 24.355469 211.949219 L 23.964844 212.28125 L 23.574219 212.597656 L 23.183594 212.902344 L 22.792969 213.195312 L 22.40625 213.476562 L 22.015625 213.742188 L 21.625 213.996094 L 21.234375 214.238281 L 20.84375 214.472656 L 20.457031 214.691406 L 20.066406 214.898438 L 19.675781 215.097656 L 19.285156 215.289062 L 18.894531 215.464844 L 18.507812 215.636719 L 18.117188 215.792969 L 17.726562 215.945312 L 17.335938 216.089844 L 16.945312 216.222656 L 16.554688 216.351562 L 16.167969 216.46875 L 15.777344 216.582031 L 15.386719 216.6875 L 14.996094 216.785156 L 14.605469 216.878906 L 14.21875 216.964844 L 13.828125 217.046875 L 13.4375 217.121094 L 13.046875 217.191406 L 12.65625 217.257812 L 12.269531 217.320312 L 11.878906 217.378906 L 11.488281 217.433594 L 10.707031 217.527344 L 10.320312 217.570312 L 9.929688 217.609375 L 9.148438 217.679688 L 8.757812 217.710938 L 8.371094 217.738281 L 7.980469 217.765625 L 7.589844 217.789062 Z M 7.199219 218.042969 "/>
<path style="fill:none;stroke-width:1.6;stroke-linecap:square;stroke-linejoin:miter;stroke:rgb(23.780823%,68.873596%,99.998474%);stroke-opacity:1;stroke-miterlimit:3.25;" d="M 7.199219 218.042969 L 117.496094 218.042969 L 117.761719 217.925781 L 118.023438 217.917969 L 118.285156 217.90625 L 118.550781 217.894531 L 118.8125 217.886719 L 119.078125 217.875 L 119.339844 217.863281 L 119.601562 217.847656 L 119.867188 217.835938 L 120.128906 217.824219 L 120.394531 217.808594 L 120.65625 217.796875 L 120.917969 217.78125 L 121.183594 217.769531 L 121.445312 217.753906 L 121.707031 217.742188 L 121.972656 217.726562 L 122.234375 217.714844 L 122.5 217.699219 L 123.023438 217.675781 L 123.289062 217.664062 L 123.8125 217.640625 L 124.078125 217.628906 L 124.339844 217.621094 L 124.605469 217.609375 L 125.128906 217.59375 L 125.394531 217.589844 L 125.917969 217.582031 L 126.183594 217.578125 L 126.445312 217.574219 L 127.234375 217.574219 L 127.5 217.578125 L 127.761719 217.582031 L 128.027344 217.585938 L 128.289062 217.589844 L 128.550781 217.597656 L 128.816406 217.605469 L 129.339844 217.621094 L 129.605469 217.632812 L 129.867188 217.640625 L 130.132812 217.652344 L 130.65625 217.675781 L 130.921875 217.6875 L 131.445312 217.710938 L 131.710938 217.722656 L 131.972656 217.734375 L 132.238281 217.746094 L 132.761719 217.769531 L 133.027344 217.78125 L 133.289062 217.789062 L 133.554688 217.800781 L 134.078125 217.816406 L 134.34375 217.824219 L 134.867188 217.832031 L 135.132812 217.835938 L 135.394531 217.839844 L 135.660156 217.84375 L 136.183594 217.84375 L 136.449219 217.839844 L 136.972656 217.832031 L 137.238281 217.824219 L 137.5 217.820312 L 137.765625 217.808594 L 138.027344 217.800781 L 138.289062 217.789062 L 138.554688 217.773438 L 138.816406 217.761719 L 139.078125 217.742188 L 139.34375 217.726562 L 139.605469 217.707031 L 139.871094 217.6875 L 140.394531 217.640625 L 140.660156 217.617188 L 140.921875 217.59375 L 141.1875 217.566406 L 141.710938 217.511719 L 141.976562 217.480469 L 142.5 217.417969 L 142.765625 217.386719 L 143.027344 217.351562 L 143.292969 217.320312 L 143.816406 217.25 L 144.082031 217.214844 L 144.605469 217.144531 L 144.871094 217.109375 L 145.132812 217.074219 L 145.398438 217.039062 L 145.660156 217.003906 L 145.921875 216.964844 L 146.1875 216.933594 L 146.710938 216.863281 L 146.976562 216.828125 L 147.238281 216.792969 L 147.503906 216.761719 L 147.765625 216.730469 L 148.027344 216.695312 L 148.292969 216.664062 L 148.554688 216.632812 L 148.820312 216.601562 L 149.082031 216.570312 L 149.34375 216.542969 L 149.609375 216.511719 L 149.871094 216.484375 L 150.132812 216.453125 L 150.398438 216.425781 L 150.660156 216.398438 L 150.925781 216.371094 L 151.1875 216.339844 L 151.449219 216.3125 L 151.714844 216.285156 L 152.238281 216.230469 L 152.503906 216.203125 L 152.765625 216.175781 L 153.03125 216.144531 L 153.554688 216.089844 L 153.820312 216.0625 L 154.082031 216.03125 L 154.347656 216.003906 L 154.609375 215.972656 L 154.871094 215.945312 L 155.136719 215.914062 L 155.398438 215.886719 L 155.660156 215.855469 L 155.925781 215.824219 L 156.1875 215.796875 L 156.453125 215.765625 L 156.714844 215.738281 L 156.976562 215.707031 L 157.242188 215.679688 L 157.503906 215.652344 L 157.765625 215.621094 L 158.03125 215.59375 L 158.292969 215.566406 L 158.558594 215.542969 L 158.820312 215.515625 L 159.082031 215.492188 L 159.347656 215.464844 L 159.609375 215.441406 L 159.871094 215.421875 L 160.136719 215.398438 L 160.398438 215.378906 L 160.664062 215.355469 L 160.925781 215.335938 L 161.1875 215.320312 L 161.453125 215.300781 L 161.714844 215.285156 L 161.980469 215.269531 L 162.503906 215.238281 L 162.769531 215.222656 L 163.292969 215.199219 L 163.558594 215.183594 L 163.820312 215.171875 L 164.085938 215.160156 L 164.609375 215.136719 L 164.875 215.125 L 165.398438 215.101562 L 165.664062 215.089844 L 165.925781 215.078125 L 166.191406 215.066406 L 166.714844 215.042969 L 166.980469 215.027344 L 167.503906 215.003906 L 167.769531 214.988281 L 168.03125 214.972656 L 168.296875 214.960938 L 168.820312 214.929688 L 169.085938 214.910156 L 169.347656 214.894531 L 169.613281 214.878906 L 170.136719 214.839844 L 170.402344 214.820312 L 170.664062 214.800781 L 170.925781 214.777344 L 171.191406 214.757812 L 171.453125 214.734375 L 171.71875 214.710938 L 171.980469 214.6875 L 172.242188 214.660156 L 172.507812 214.636719 L 172.769531 214.609375 L 173.03125 214.578125 L 173.296875 214.550781 L 173.558594 214.519531 L 173.824219 214.488281 L 174.085938 214.457031 L 174.347656 214.421875 L 174.613281 214.386719 L 174.875 214.351562 L 175.136719 214.3125 L 175.402344 214.277344 L 175.664062 214.234375 L 175.929688 214.195312 L 176.191406 214.15625 L 176.453125 214.113281 L 176.71875 214.070312 L 176.980469 214.023438 L 177.246094 213.980469 L 177.769531 213.886719 L 178.035156 213.839844 L 178.558594 213.738281 L 178.824219 213.691406 L 179.085938 213.636719 L 179.351562 213.585938 L 179.613281 213.535156 L 179.875 213.480469 L 180.140625 213.425781 L 180.402344 213.371094 L 180.664062 213.3125 L 180.929688 213.257812 L 181.191406 213.199219 L 181.457031 213.136719 L 181.71875 213.078125 L 181.980469 213.015625 L 182.246094 212.949219 L 182.507812 212.882812 L 182.773438 212.816406 L 183.035156 212.75 L 183.296875 212.679688 L 183.5625 212.605469 L 184.085938 212.457031 L 184.351562 212.378906 L 184.613281 212.296875 L 184.878906 212.214844 L 185.140625 212.132812 L 185.402344 212.046875 L 185.667969 211.960938 L 185.929688 211.875 L 186.191406 211.785156 L 186.457031 211.695312 L 186.71875 211.605469 L 186.984375 211.515625 L 187.246094 211.421875 L 187.507812 211.332031 L 187.773438 211.242188 L 188.035156 211.148438 L 188.296875 211.058594 L 188.5625 210.96875 L 188.824219 210.882812 L 189.089844 210.796875 L 189.351562 210.710938 L 189.613281 210.628906 L 189.878906 210.546875 L 190.140625 210.46875 L 190.40625 210.394531 L 190.667969 210.320312 L 190.929688 210.25 L 191.195312 210.179688 L 191.71875 210.046875 L 191.984375 209.984375 L 192.246094 209.925781 L 192.511719 209.863281 L 193.035156 209.746094 L 193.300781 209.6875 L 193.824219 209.5625 L 194.089844 209.5 L 194.351562 209.433594 L 194.617188 209.363281 L 195.140625 209.207031 L 195.40625 209.121094 L 195.667969 209.027344 L 195.929688 208.925781 L 196.195312 208.816406 L 196.457031 208.699219 L 196.722656 208.570312 L 196.984375 208.429688 L 197.246094 208.28125 L 197.511719 208.117188 L 197.773438 207.945312 L 198.039062 207.757812 L 198.300781 207.558594 L 198.5625 207.347656 L 198.828125 207.121094 L 199.089844 206.882812 L 199.351562 206.632812 L 199.617188 206.367188 L 199.878906 206.089844 L 200.144531 205.800781 L 200.40625 205.5 L 200.667969 205.1875 L 200.933594 204.867188 L 201.195312 204.535156 L 201.457031 204.195312 L 201.722656 203.847656 L 201.984375 203.492188 L 202.25 203.132812 L 202.511719 202.769531 L 202.773438 202.402344 L 203.039062 202.035156 L 203.300781 201.664062 L 203.566406 201.292969 L 203.828125 200.925781 L 204.089844 200.5625 L 204.355469 200.199219 L 204.617188 199.84375 L 204.878906 199.492188 L 205.144531 199.152344 L 205.40625 198.816406 L 205.671875 198.488281 L 205.933594 198.171875 L 206.195312 197.863281 L 206.460938 197.566406 L 206.722656 197.28125 L 206.984375 197.007812 L 207.25 196.746094 L 207.511719 196.492188 L 207.777344 196.253906 L 208.039062 196.023438 L 208.300781 195.804688 L 208.566406 195.597656 L 208.828125 195.398438 L 209.089844 195.210938 L 209.355469 195.03125 L 209.617188 194.859375 L 209.882812 194.695312 L 210.144531 194.539062 L 210.40625 194.386719 L 210.671875 194.238281 L 210.933594 194.09375 L 211.199219 193.953125 L 211.460938 193.816406 L 211.722656 193.675781 L 211.988281 193.539062 L 212.25 193.402344 L 212.511719 193.261719 L 212.777344 193.121094 L 213.039062 192.976562 L 213.304688 192.828125 L 213.566406 192.679688 L 213.828125 192.523438 L 214.09375 192.363281 L 214.355469 192.203125 L 214.617188 192.03125 L 214.882812 191.859375 L 215.144531 191.683594 L 215.410156 191.5 L 215.671875 191.3125 L 215.933594 191.121094 L 216.199219 190.925781 L 216.460938 190.726562 L 216.722656 190.523438 L 216.988281 190.320312 L 217.25 190.113281 L 217.515625 189.90625 L 217.777344 189.695312 L 218.039062 189.488281 L 218.304688 189.277344 L 218.566406 189.066406 L 218.832031 188.859375 L 219.355469 188.445312 L 219.621094 188.242188 L 220.144531 187.84375 L 220.410156 187.652344 L 220.671875 187.460938 L 220.9375 187.273438 L 221.199219 187.089844 L 221.460938 186.910156 L 221.726562 186.734375 L 221.988281 186.5625 L 222.25 186.394531 L 222.515625 186.230469 L 222.777344 186.066406 L 223.042969 185.910156 L 223.566406 185.597656 L 223.832031 185.445312 L 224.09375 185.296875 L 224.359375 185.148438 L 224.882812 184.851562 L 225.148438 184.703125 L 225.671875 184.40625 L 225.9375 184.257812 L 226.199219 184.105469 L 226.464844 183.953125 L 226.726562 183.796875 L 226.988281 183.636719 L 227.253906 183.476562 L 227.777344 183.148438 L 228.042969 182.976562 L 228.304688 182.804688 L 228.570312 182.628906 L 228.832031 182.449219 L 229.09375 182.265625 L 229.359375 182.082031 L 229.882812 181.699219 L 230.148438 181.5 L 230.410156 181.300781 L 230.675781 181.101562 L 231.199219 180.6875 L 231.464844 180.480469 L 231.726562 180.269531 L 231.992188 180.054688 L 232.515625 179.625 L 232.78125 179.410156 L 233.304688 178.972656 L 233.570312 178.757812 L 233.832031 178.539062 L 234.097656 178.320312 L 234.359375 178.101562 L 234.621094 177.886719 L 234.886719 177.667969 L 235.410156 177.238281 L 235.675781 177.023438 L 235.9375 176.8125 L 236.203125 176.597656 L 236.726562 176.175781 L 236.992188 175.96875 L 237.515625 175.546875 L 237.78125 175.339844 L 238.042969 175.128906 L 238.308594 174.917969 L 238.832031 174.496094 L 239.097656 174.28125 L 239.359375 174.0625 L 239.625 173.84375 L 239.886719 173.617188 L 240.148438 173.386719 L 240.414062 173.15625 L 240.675781 172.914062 L 240.9375 172.667969 L 241.203125 172.414062 L 241.464844 172.152344 L 241.730469 171.882812 L 241.992188 171.601562 L 242.253906 171.3125 L 242.519531 171.011719 L 242.78125 170.699219 L 243.042969 170.375 L 243.308594 170.035156 L 243.570312 169.683594 L 243.835938 169.316406 L 244.097656 168.933594 L 244.359375 168.539062 L 244.625 168.128906 L 244.886719 167.699219 L 245.152344 167.257812 L 245.414062 166.800781 L 245.675781 166.324219 L 245.941406 165.835938 L 246.203125 165.328125 L 246.464844 164.808594 L 246.730469 164.273438 L 246.992188 163.722656 L 247.257812 163.160156 L 247.519531 162.582031 L 247.78125 161.992188 L 248.046875 161.390625 L 248.308594 160.777344 L 248.570312 160.15625 L 248.835938 159.523438 L 249.097656 158.886719 L 249.363281 158.238281 L 249.625 157.585938 L 249.886719 156.925781 L 250.152344 156.261719 L 250.414062 155.59375 L 250.675781 154.921875 L 250.941406 154.25 L 251.203125 153.574219 L 251.46875 152.898438 L 251.730469 152.222656 L 251.992188 151.550781 L 252.257812 150.875 L 252.519531 150.203125 L 252.785156 149.53125 L 253.308594 148.195312 L 253.574219 147.527344 L 253.835938 146.867188 L 254.097656 146.203125 L 254.363281 145.546875 L 254.625 144.886719 L 254.890625 144.230469 L 255.414062 142.925781 L 255.679688 142.269531 L 256.203125 140.964844 L 256.46875 140.3125 L 256.730469 139.65625 L 256.996094 139.003906 L 257.519531 137.683594 L 257.785156 137.019531 L 258.046875 136.355469 L 258.308594 135.683594 L 258.574219 135.011719 L 258.835938 134.332031 L 259.101562 133.648438 L 259.363281 132.960938 L 259.625 132.265625 L 259.890625 131.566406 L 260.152344 130.859375 L 260.417969 130.148438 L 260.679688 129.429688 L 260.941406 128.703125 L 261.207031 127.972656 L 261.46875 127.230469 L 261.730469 126.484375 L 261.996094 125.730469 L 262.257812 124.964844 L 262.523438 124.195312 L 262.785156 123.417969 L 263.046875 122.628906 L 263.3125 121.835938 L 263.574219 121.03125 L 263.835938 120.21875 L 264.101562 119.398438 L 264.363281 118.570312 L 264.628906 117.734375 L 264.890625 116.886719 L 265.152344 116.03125 L 265.417969 115.167969 L 265.679688 114.296875 L 265.941406 113.414062 L 266.207031 112.523438 L 266.46875 111.625 L 266.734375 110.714844 L 266.996094 109.796875 L 267.257812 108.871094 L 267.523438 107.933594 L 267.785156 106.988281 L 268.050781 106.03125 L 268.3125 105.070312 L 268.574219 104.097656 L 268.839844 103.113281 L 269.101562 102.121094 L 269.363281 101.125 L 269.628906 100.113281 L 269.890625 99.097656 L 270.15625 98.074219 L 270.417969 97.039062 L 270.679688 96 L 270.945312 94.953125 L 271.207031 93.898438 L 271.46875 92.835938 L 271.734375 91.769531 L 271.996094 90.695312 L 272.261719 89.617188 L 272.523438 88.535156 L 272.785156 87.449219 L 273.050781 86.359375 L 273.3125 85.265625 L 273.578125 84.171875 L 274.101562 81.976562 L 274.367188 80.878906 L 274.890625 78.683594 L 275.15625 77.589844 L 275.417969 76.496094 L 275.683594 75.40625 L 276.207031 73.234375 L 276.472656 72.15625 L 276.734375 71.082031 L 276.996094 70.011719 L 277.261719 68.945312 L 277.523438 67.882812 L 277.789062 66.828125 L 278.050781 65.777344 L 278.3125 64.730469 L 278.578125 63.691406 L 278.839844 62.65625 L 279.101562 61.628906 L 279.367188 60.605469 L 279.628906 59.585938 L 279.894531 58.570312 L 280.417969 56.554688 L 280.683594 55.554688 L 280.945312 54.554688 L 281.210938 53.5625 L 281.472656 52.574219 L 281.734375 51.589844 L 282 50.605469 L 282.261719 49.628906 L 282.523438 48.65625 L 282.789062 47.6875 L 283.050781 46.71875 L 283.316406 45.757812 L 283.578125 44.804688 L 283.839844 43.855469 L 284.105469 42.910156 L 284.367188 41.96875 L 284.628906 41.039062 L 284.894531 40.113281 L 285.15625 39.195312 L 285.421875 38.285156 L 285.683594 37.382812 L 285.945312 36.488281 L 286.210938 35.605469 L 286.472656 34.730469 L 286.734375 33.863281 L 287 33.007812 L 287.261719 32.160156 L 287.527344 31.324219 L 287.789062 30.496094 L 288.050781 29.679688 L 288.316406 28.871094 L 288.578125 28.074219 L 288.84375 27.28125 L 289.105469 26.5 L 289.367188 25.722656 L 289.632812 24.957031 L 289.894531 24.195312 L 290.15625 23.4375 L 290.421875 22.6875 L 290.683594 21.941406 L 290.949219 21.199219 L 291.210938 20.460938 L 291.472656 19.726562 L 291.738281 18.996094 L 292 18.265625 L 292.261719 17.539062 L 292.527344 16.816406 L 292.789062 16.097656 L 293.054688 15.382812 L 293.316406 14.671875 L 293.578125 13.96875 L 293.84375 13.273438 L 294.105469 12.585938 L 294.371094 11.90625 L 294.632812 11.242188 L 294.894531 10.589844 L 295.160156 9.957031 L 295.421875 9.34375 L 295.683594 8.75 L 295.949219 8.179688 L 296.210938 7.640625 L 296.476562 7.132812 L 296.738281 6.65625 L 297 6.21875 L 297.265625 5.820312 L 297.527344 5.46875 L 297.789062 5.164062 L 298.054688 4.90625 L 298.316406 4.707031 L 298.582031 4.558594 L 298.84375 4.472656 L 299.105469 4.449219 L 299.371094 4.488281 L 299.632812 4.597656 L 299.894531 4.773438 L 300.160156 5.019531 L 300.421875 5.335938 L 300.6875 5.726562 L 300.949219 6.191406 L 301.210938 6.734375 L 301.476562 7.347656 L 301.738281 8.039062 L 302.003906 8.804688 L 302.265625 9.644531 L 302.527344 10.5625 L 302.792969 11.550781 L 303.054688 12.609375 L 303.316406 13.742188 L 303.582031 14.945312 L 303.84375 16.210938 L 304.109375 17.546875 L 304.371094 18.945312 L 304.632812 20.40625 L 304.898438 21.925781 L 305.160156 23.503906 L 305.421875 25.136719 L 305.6875 26.820312 L 305.949219 28.554688 L 306.214844 30.335938 L 306.476562 32.164062 L 306.738281 34.035156 L 307.003906 35.949219 L 307.265625 37.898438 L 307.527344 39.882812 L 307.792969 41.898438 L 308.054688 43.949219 L 308.320312 46.027344 L 308.582031 48.132812 L 308.84375 50.265625 L 309.109375 52.417969 L 309.371094 54.589844 L 309.636719 56.78125 L 309.898438 58.992188 L 310.160156 61.214844 L 310.425781 63.453125 L 310.6875 65.703125 L 310.949219 67.964844 L 311.214844 70.230469 L 311.476562 72.503906 L 311.742188 74.785156 L 312.265625 79.355469 L 312.53125 81.640625 L 313.054688 86.210938 L 313.320312 88.488281 L 313.582031 90.765625 L 313.847656 93.035156 L 314.109375 95.300781 L 314.371094 97.554688 L 314.636719 99.800781 L 314.898438 102.035156 L 315.164062 104.257812 L 315.425781 106.46875 L 315.6875 108.667969 L 315.953125 110.851562 L 316.214844 113.023438 L 316.476562 115.175781 L 316.742188 117.3125 L 317.003906 119.433594 L 317.269531 121.535156 L 317.53125 123.617188 L 317.792969 125.683594 L 318.058594 127.730469 L 318.320312 129.753906 L 318.582031 131.761719 L 318.847656 133.75 L 319.109375 135.714844 L 319.375 137.660156 L 319.636719 139.582031 L 319.898438 141.484375 L 320.164062 143.367188 L 320.425781 145.230469 L 320.6875 147.066406 L 320.953125 148.886719 L 321.214844 150.679688 L 321.480469 152.457031 L 321.742188 154.207031 L 322.003906 155.9375 L 322.269531 157.648438 L 322.53125 159.332031 L 322.796875 160.996094 L 323.058594 162.636719 L 323.320312 164.257812 L 323.847656 167.421875 L 324.109375 168.972656 L 324.375 170.496094 L 324.636719 171.996094 L 324.902344 173.472656 L 325.164062 174.921875 L 325.425781 176.347656 L 325.691406 177.746094 L 325.953125 179.117188 L 326.214844 180.464844 L 326.480469 181.78125 L 326.742188 183.074219 L 327.007812 184.335938 L 327.269531 185.574219 L 327.53125 186.777344 L 327.796875 187.957031 L 328.058594 189.101562 L 328.320312 190.21875 L 328.585938 191.308594 L 328.847656 192.367188 L 329.113281 193.394531 L 329.375 194.390625 L 329.636719 195.355469 L 329.902344 196.292969 L 330.164062 197.199219 L 330.429688 198.074219 L 330.691406 198.921875 L 330.953125 199.738281 L 331.21875 200.523438 L 331.480469 201.28125 L 331.742188 202.007812 L 332.007812 202.710938 L 332.269531 203.382812 L 332.535156 204.027344 L 332.796875 204.648438 L 333.058594 205.242188 L 333.324219 205.8125 L 333.585938 206.355469 L 333.847656 206.875 L 334.113281 207.375 L 334.375 207.851562 L 334.640625 208.304688 L 334.902344 208.738281 L 335.164062 209.152344 L 335.429688 209.550781 L 335.691406 209.929688 L 335.953125 210.289062 L 336.21875 210.636719 L 336.480469 210.964844 L 336.746094 211.28125 L 337.007812 211.582031 L 337.269531 211.867188 L 337.535156 212.144531 L 337.796875 212.40625 L 338.0625 212.660156 L 338.324219 212.902344 L 338.585938 213.132812 L 338.851562 213.355469 L 339.113281 213.570312 L 339.375 213.773438 L 339.640625 213.96875 L 339.902344 214.160156 L 340.167969 214.339844 L 340.429688 214.515625 L 340.691406 214.683594 L 340.957031 214.847656 L 341.21875 215.003906 L 341.480469 215.152344 L 341.746094 215.296875 L 342.007812 215.4375 L 342.273438 215.570312 L 342.535156 215.699219 L 342.796875 215.824219 L 343.0625 215.945312 L 343.324219 216.058594 L 343.589844 216.167969 L 344.113281 216.378906 L 344.378906 216.476562 L 344.640625 216.570312 L 344.902344 216.660156 L 345.167969 216.742188 L 345.429688 216.824219 L 345.695312 216.902344 L 345.957031 216.980469 L 346.21875 217.050781 L 346.484375 217.117188 L 347.007812 217.242188 L 347.273438 217.300781 L 347.535156 217.355469 L 347.800781 217.40625 L 348.324219 217.5 L 348.589844 217.542969 L 349.113281 217.621094 L 349.378906 217.65625 L 349.640625 217.6875 L 349.90625 217.71875 L 350.429688 217.773438 L 350.695312 217.796875 L 350.957031 217.820312 L 351.222656 217.839844 L 351.746094 217.878906 L 352.011719 217.894531 L 352.273438 217.910156 L 352.535156 217.921875 L 352.800781 218.042969 "/>
<path style="fill:none;stroke-width:1.6;stroke-linecap:square;stroke-linejoin:miter;stroke:rgb(99.998474%,51.959229%,30.967712%);stroke-opacity:1;stroke-miterlimit:3.25;" d="M 7.199219 218.042969 L 7.589844 217.789062 L 7.980469 217.765625 L 8.371094 217.738281 L 8.757812 217.710938 L 9.148438 217.679688 L 9.929688 217.609375 L 10.320312 217.570312 L 10.707031 217.527344 L 11.488281 217.433594 L 11.878906 217.378906 L 12.269531 217.320312 L 12.65625 217.257812 L 13.046875 217.191406 L 13.4375 217.121094 L 13.828125 217.046875 L 14.21875 216.964844 L 14.605469 216.878906 L 14.996094 216.785156 L 15.386719 216.6875 L 15.777344 216.582031 L 16.167969 216.46875 L 16.554688 216.351562 L 16.945312 216.222656 L 17.335938 216.089844 L 17.726562 215.945312 L 18.117188 215.792969 L 18.507812 215.636719 L 18.894531 215.464844 L 19.285156 215.289062 L 19.675781 215.097656 L 20.066406 214.898438 L 20.457031 214.691406 L 20.84375 214.472656 L 21.234375 214.238281 L 21.625 213.996094 L 22.015625 213.742188 L 22.40625 213.476562 L 22.792969 213.195312 L 23.183594 212.902344 L 23.574219 212.597656 L 23.964844 212.28125 L 24.355469 211.949219 L 24.742188 211.601562 L 25.132812 211.242188 L 25.523438 210.867188 L 25.914062 210.476562 L 26.304688 210.074219 L 26.691406 209.65625 L 27.082031 209.222656 L 27.472656 208.777344 L 27.863281 208.3125 L 28.253906 207.835938 L 28.640625 207.34375 L 29.03125 206.835938 L 29.421875 206.3125 L 29.8125 205.773438 L 30.203125 205.222656 L 30.589844 204.65625 L 30.980469 204.074219 L 31.371094 203.480469 L 31.761719 202.871094 L 32.152344 202.246094 L 32.539062 201.609375 L 32.929688 200.960938 L 33.320312 200.300781 L 33.710938 199.628906 L 34.101562 198.941406 L 34.488281 198.246094 L 34.878906 197.539062 L 35.269531 196.820312 L 35.660156 196.09375 L 36.050781 195.359375 L 36.441406 194.613281 L 36.828125 193.863281 L 37.21875 193.101562 L 37.609375 192.335938 L 38 191.566406 L 38.390625 190.789062 L 38.777344 190.007812 L 39.167969 189.222656 L 39.949219 187.644531 L 40.339844 186.851562 L 40.726562 186.058594 L 41.898438 183.679688 L 42.289062 182.890625 L 42.675781 182.101562 L 43.066406 181.316406 L 43.457031 180.535156 L 43.847656 179.757812 L 44.238281 178.988281 L 44.625 178.21875 L 45.015625 177.460938 L 45.40625 176.707031 L 45.796875 175.960938 L 46.1875 175.21875 L 46.574219 174.488281 L 46.964844 173.765625 L 47.355469 173.046875 L 47.746094 172.34375 L 48.136719 171.644531 L 48.523438 170.957031 L 48.914062 170.28125 L 49.304688 169.609375 L 49.695312 168.953125 L 50.085938 168.304688 L 50.472656 167.664062 L 50.863281 167.039062 L 51.253906 166.417969 L 51.644531 165.8125 L 52.035156 165.214844 L 52.421875 164.625 L 52.8125 164.046875 L 53.203125 163.480469 L 53.59375 162.921875 L 53.984375 162.371094 L 54.371094 161.832031 L 54.761719 161.300781 L 55.152344 160.777344 L 55.542969 160.265625 L 55.933594 159.761719 L 56.324219 159.261719 L 56.710938 158.773438 L 57.101562 158.292969 L 57.492188 157.820312 L 57.882812 157.351562 L 58.273438 156.890625 L 58.660156 156.4375 L 59.050781 155.988281 L 59.441406 155.546875 L 59.832031 155.109375 L 60.222656 154.679688 L 60.609375 154.253906 L 61 153.832031 L 61.390625 153.417969 L 62.171875 152.597656 L 62.558594 152.195312 L 62.949219 151.796875 L 63.730469 151.015625 L 64.121094 150.628906 L 64.507812 150.246094 L 64.898438 149.867188 L 65.289062 149.492188 L 65.679688 149.121094 L 66.070312 148.753906 L 66.457031 148.390625 L 67.238281 147.671875 L 67.628906 147.320312 L 68.019531 146.976562 L 68.40625 146.632812 L 68.796875 146.292969 L 69.1875 145.957031 L 69.578125 145.628906 L 69.96875 145.304688 L 70.355469 144.984375 L 71.136719 144.359375 L 71.917969 143.757812 L 72.304688 143.46875 L 72.695312 143.179688 L 73.085938 142.902344 L 73.476562 142.628906 L 73.867188 142.359375 L 74.253906 142.101562 L 74.644531 141.847656 L 75.035156 141.601562 L 75.425781 141.359375 L 75.816406 141.128906 L 76.207031 140.902344 L 76.59375 140.683594 L 76.984375 140.472656 L 77.375 140.269531 L 77.765625 140.070312 L 78.15625 139.882812 L 78.542969 139.699219 L 78.933594 139.527344 L 79.324219 139.359375 L 79.714844 139.199219 L 80.105469 139.046875 L 80.492188 138.898438 L 80.882812 138.761719 L 81.273438 138.628906 L 81.664062 138.503906 L 82.054688 138.386719 L 82.441406 138.273438 L 82.832031 138.167969 L 83.222656 138.070312 L 83.613281 137.976562 L 84.003906 137.886719 L 84.390625 137.804688 L 84.78125 137.730469 L 85.171875 137.660156 L 85.5625 137.59375 L 85.953125 137.53125 L 86.339844 137.476562 L 86.730469 137.425781 L 87.121094 137.378906 L 87.511719 137.335938 L 87.902344 137.296875 L 88.289062 137.265625 L 88.679688 137.234375 L 89.070312 137.207031 L 89.851562 137.167969 L 90.238281 137.152344 L 90.628906 137.136719 L 91.410156 137.121094 L 91.800781 137.117188 L 92.578125 137.117188 L 92.96875 137.125 L 93.359375 137.128906 L 93.75 137.140625 L 94.136719 137.152344 L 94.527344 137.164062 L 94.917969 137.179688 L 95.308594 137.199219 L 95.699219 137.222656 L 96.089844 137.242188 L 96.476562 137.269531 L 97.257812 137.324219 L 98.039062 137.386719 L 98.425781 137.421875 L 99.988281 137.578125 L 100.375 137.625 L 100.765625 137.667969 L 101.546875 137.761719 L 101.9375 137.8125 L 102.324219 137.863281 L 102.714844 137.914062 L 103.886719 138.078125 L 104.273438 138.136719 L 104.664062 138.191406 L 105.445312 138.308594 L 105.835938 138.371094 L 106.222656 138.429688 L 107.785156 138.679688 L 108.171875 138.742188 L 109.734375 138.992188 L 110.121094 139.054688 L 111.292969 139.242188 L 111.683594 139.308594 L 112.070312 139.371094 L 112.460938 139.429688 L 114.023438 139.679688 L 114.410156 139.742188 L 115.191406 139.867188 L 115.582031 139.925781 L 115.972656 139.988281 L 116.359375 140.050781 L 116.75 140.117188 L 117.53125 140.242188 L 117.921875 140.308594 L 118.308594 140.375 L 118.699219 140.441406 L 119.089844 140.511719 L 119.480469 140.578125 L 119.871094 140.652344 L 120.257812 140.722656 L 120.648438 140.796875 L 121.820312 141.03125 L 122.207031 141.113281 L 122.597656 141.199219 L 123.769531 141.46875 L 124.15625 141.566406 L 124.546875 141.664062 L 124.9375 141.765625 L 125.328125 141.871094 L 125.71875 141.980469 L 126.105469 142.089844 L 126.496094 142.203125 L 126.886719 142.320312 L 127.667969 142.5625 L 128.054688 142.691406 L 128.445312 142.820312 L 129.226562 143.085938 L 129.617188 143.222656 L 130.003906 143.363281 L 130.785156 143.652344 L 131.566406 143.949219 L 131.953125 144.101562 L 132.34375 144.253906 L 133.90625 144.878906 L 134.292969 145.039062 L 135.855469 145.679688 L 136.242188 145.839844 L 137.414062 146.320312 L 137.804688 146.476562 L 138.191406 146.636719 L 138.972656 146.949219 L 139.363281 147.101562 L 139.753906 147.257812 L 140.140625 147.410156 L 140.53125 147.558594 L 140.921875 147.710938 L 141.703125 148.007812 L 142.089844 148.152344 L 142.480469 148.300781 L 143.261719 148.589844 L 143.652344 148.730469 L 144.039062 148.875 L 144.429688 149.015625 L 144.820312 149.160156 L 145.210938 149.300781 L 145.601562 149.445312 L 145.988281 149.585938 L 147.550781 150.164062 L 147.9375 150.3125 L 148.328125 150.464844 L 148.71875 150.613281 L 149.5 150.925781 L 149.886719 151.082031 L 150.667969 151.410156 L 151.058594 151.578125 L 151.449219 151.75 L 151.835938 151.925781 L 152.226562 152.105469 L 152.617188 152.289062 L 153.007812 152.476562 L 153.398438 152.667969 L 153.789062 152.863281 L 154.175781 153.066406 L 154.566406 153.269531 L 154.957031 153.480469 L 155.347656 153.695312 L 155.738281 153.914062 L 156.125 154.136719 L 156.515625 154.367188 L 156.90625 154.601562 L 157.296875 154.839844 L 157.6875 155.082031 L 158.074219 155.328125 L 158.464844 155.578125 L 159.246094 156.09375 L 159.636719 156.359375 L 160.023438 156.625 L 160.804688 157.171875 L 161.195312 157.449219 L 161.585938 157.730469 L 161.972656 158.011719 L 162.363281 158.300781 L 162.753906 158.585938 L 163.535156 159.171875 L 163.921875 159.464844 L 164.3125 159.757812 L 165.484375 160.648438 L 165.871094 160.945312 L 166.261719 161.246094 L 167.433594 162.136719 L 167.820312 162.429688 L 168.210938 162.726562 L 168.601562 163.019531 L 168.992188 163.308594 L 169.382812 163.601562 L 169.769531 163.886719 L 170.160156 164.175781 L 170.550781 164.457031 L 170.941406 164.742188 L 171.332031 165.019531 L 171.71875 165.296875 L 172.5 165.84375 L 172.890625 166.113281 L 173.28125 166.378906 L 173.671875 166.640625 L 174.058594 166.902344 L 174.449219 167.160156 L 175.230469 167.667969 L 175.621094 167.917969 L 176.007812 168.164062 L 176.789062 168.648438 L 177.570312 169.125 L 177.957031 169.355469 L 178.347656 169.589844 L 179.519531 170.269531 L 179.90625 170.488281 L 180.296875 170.710938 L 180.6875 170.929688 L 181.46875 171.359375 L 181.855469 171.574219 L 182.636719 171.996094 L 183.417969 172.410156 L 183.804688 172.617188 L 184.195312 172.824219 L 184.585938 173.027344 L 184.976562 173.226562 L 185.367188 173.429688 L 185.753906 173.628906 L 186.535156 174.027344 L 187.316406 174.417969 L 187.703125 174.613281 L 188.09375 174.804688 L 188.484375 175 L 188.875 175.1875 L 189.265625 175.378906 L 189.652344 175.566406 L 190.042969 175.753906 L 191.214844 176.304688 L 191.605469 176.484375 L 191.992188 176.664062 L 192.773438 177.015625 L 193.554688 177.359375 L 193.941406 177.527344 L 194.332031 177.695312 L 195.113281 178.023438 L 195.503906 178.183594 L 195.890625 178.34375 L 196.28125 178.5 L 197.0625 178.804688 L 197.453125 178.953125 L 197.839844 179.101562 L 198.230469 179.246094 L 198.621094 179.386719 L 199.011719 179.53125 L 199.402344 179.667969 L 199.789062 179.804688 L 200.179688 179.941406 L 200.570312 180.074219 L 200.960938 180.203125 L 201.351562 180.335938 L 201.738281 180.464844 L 203.300781 180.964844 L 203.6875 181.089844 L 205.25 181.574219 L 205.636719 181.695312 L 206.808594 182.058594 L 207.199219 182.183594 L 207.585938 182.304688 L 207.976562 182.429688 L 208.367188 182.550781 L 208.757812 182.675781 L 209.148438 182.804688 L 209.535156 182.929688 L 210.316406 183.1875 L 211.488281 183.585938 L 211.875 183.722656 L 212.65625 183.996094 L 213.4375 184.277344 L 213.824219 184.421875 L 214.214844 184.566406 L 215.386719 185.011719 L 215.773438 185.164062 L 216.164062 185.320312 L 216.554688 185.472656 L 216.945312 185.628906 L 217.335938 185.789062 L 217.722656 185.945312 L 218.113281 186.105469 L 218.503906 186.269531 L 218.894531 186.429688 L 219.285156 186.59375 L 219.671875 186.761719 L 220.0625 186.925781 L 220.84375 187.261719 L 221.234375 187.433594 L 221.621094 187.601562 L 222.792969 188.117188 L 223.183594 188.292969 L 223.570312 188.464844 L 225.132812 189.167969 L 225.519531 189.34375 L 225.910156 189.519531 L 226.300781 189.699219 L 226.691406 189.875 L 227.082031 190.054688 L 227.46875 190.230469 L 229.03125 190.949219 L 229.417969 191.128906 L 230.589844 191.667969 L 230.980469 191.851562 L 231.371094 192.03125 L 231.757812 192.210938 L 232.148438 192.394531 L 232.929688 192.753906 L 233.320312 192.9375 L 233.707031 193.117188 L 234.097656 193.296875 L 234.488281 193.480469 L 235.269531 193.839844 L 235.65625 194.019531 L 237.21875 194.738281 L 237.605469 194.917969 L 237.996094 195.097656 L 238.386719 195.273438 L 238.777344 195.453125 L 239.167969 195.628906 L 239.554688 195.804688 L 240.726562 196.332031 L 241.117188 196.503906 L 241.503906 196.679688 L 242.285156 197.023438 L 242.675781 197.191406 L 243.066406 197.363281 L 243.453125 197.53125 L 244.625 198.035156 L 245.015625 198.199219 L 245.402344 198.367188 L 245.792969 198.53125 L 246.183594 198.691406 L 246.574219 198.855469 L 246.964844 199.015625 L 247.351562 199.175781 L 248.132812 199.496094 L 249.304688 199.964844 L 249.691406 200.121094 L 250.082031 200.273438 L 250.472656 200.429688 L 251.253906 200.734375 L 251.640625 200.882812 L 252.03125 201.035156 L 252.421875 201.183594 L 252.8125 201.335938 L 253.203125 201.484375 L 253.589844 201.628906 L 254.371094 201.925781 L 255.152344 202.214844 L 255.539062 202.359375 L 256.710938 202.792969 L 257.101562 202.933594 L 257.488281 203.078125 L 259.050781 203.640625 L 259.4375 203.78125 L 259.828125 203.917969 L 260.21875 204.058594 L 261 204.332031 L 261.386719 204.46875 L 262.167969 204.742188 L 262.558594 204.875 L 262.949219 205.011719 L 263.335938 205.144531 L 264.117188 205.410156 L 264.507812 205.539062 L 264.898438 205.671875 L 265.285156 205.800781 L 266.457031 206.1875 L 266.847656 206.3125 L 267.234375 206.4375 L 268.40625 206.8125 L 269.1875 207.054688 L 269.574219 207.175781 L 269.964844 207.296875 L 271.136719 207.648438 L 271.523438 207.765625 L 271.914062 207.878906 L 272.304688 207.996094 L 273.085938 208.222656 L 273.472656 208.332031 L 273.863281 208.445312 L 275.035156 208.773438 L 275.421875 208.882812 L 275.8125 208.992188 L 276.203125 209.097656 L 276.59375 209.207031 L 276.984375 209.3125 L 277.371094 209.417969 L 278.933594 209.839844 L 279.320312 209.945312 L 279.710938 210.046875 L 280.492188 210.257812 L 280.882812 210.359375 L 281.269531 210.464844 L 281.660156 210.566406 L 282.050781 210.671875 L 282.441406 210.773438 L 282.832031 210.878906 L 283.21875 210.980469 L 283.609375 211.085938 L 284 211.1875 L 284.390625 211.292969 L 284.78125 211.394531 L 285.167969 211.5 L 285.558594 211.601562 L 285.949219 211.707031 L 286.730469 211.910156 L 287.117188 212.015625 L 288.289062 212.320312 L 288.679688 212.425781 L 289.070312 212.527344 L 289.457031 212.625 L 290.238281 212.828125 L 290.628906 212.925781 L 291.019531 213.027344 L 291.40625 213.125 L 292.1875 213.320312 L 292.578125 213.414062 L 292.96875 213.511719 L 293.355469 213.605469 L 293.746094 213.699219 L 294.917969 213.96875 L 295.304688 214.058594 L 296.476562 214.316406 L 296.867188 214.398438 L 297.253906 214.480469 L 297.644531 214.5625 L 298.425781 214.71875 L 298.816406 214.792969 L 299.203125 214.867188 L 300.375 215.078125 L 300.765625 215.144531 L 301.152344 215.210938 L 301.542969 215.277344 L 302.324219 215.402344 L 302.714844 215.460938 L 303.101562 215.519531 L 304.273438 215.683594 L 304.664062 215.734375 L 305.050781 215.785156 L 305.441406 215.835938 L 306.613281 215.976562 L 307 216.019531 L 308.171875 216.148438 L 308.953125 216.226562 L 309.339844 216.265625 L 309.730469 216.304688 L 310.902344 216.410156 L 311.289062 216.445312 L 311.679688 216.480469 L 312.070312 216.511719 L 312.460938 216.546875 L 312.851562 216.578125 L 313.238281 216.609375 L 314.800781 216.734375 L 315.1875 216.761719 L 315.578125 216.792969 L 315.96875 216.820312 L 316.359375 216.851562 L 316.75 216.878906 L 317.136719 216.910156 L 318.308594 216.992188 L 318.699219 217.023438 L 319.085938 217.050781 L 319.867188 217.105469 L 320.257812 217.128906 L 320.648438 217.15625 L 321.035156 217.183594 L 321.816406 217.238281 L 322.207031 217.261719 L 322.597656 217.289062 L 322.984375 217.3125 L 323.375 217.335938 L 323.765625 217.363281 L 324.546875 217.410156 L 324.933594 217.433594 L 325.714844 217.480469 L 326.105469 217.5 L 326.496094 217.523438 L 326.886719 217.542969 L 327.273438 217.566406 L 328.835938 217.644531 L 329.222656 217.664062 L 329.613281 217.679688 L 330.003906 217.699219 L 330.785156 217.730469 L 331.171875 217.746094 L 332.34375 217.792969 L 332.734375 218.042969 L 352.800781 218.042969 "/>
</g>
</svg>
